<mxfile host="app.diagrams.net" modified="2023-09-12T12:35:31.038Z" agent="Mozilla/5.0 (X11; Ubuntu; Linux x86_64; rv:109.0) Gecko/20100101 Firefox/117.0" etag="yGJ2awOyEyYDYE_jfqde" version="21.7.4" type="github">
  <diagram name="Page-1" id="2YBvvXClWsGukQMizWep">
    <mxGraphModel dx="2212" dy="1829" grid="1" gridSize="10" guides="1" tooltips="1" connect="1" arrows="1" fold="1" page="1" pageScale="1" pageWidth="850" pageHeight="1100" math="0" shadow="0">
      <root>
        <mxCell id="0" />
        <mxCell id="1" parent="0" />
        <mxCell id="YkcUs4L2bTsYHIqQjSH9-1" value="Check auth_token" style="rhombus;whiteSpace=wrap;html=1;" vertex="1" parent="1">
          <mxGeometry x="280" y="230" width="280" height="100" as="geometry" />
        </mxCell>
        <mxCell id="YkcUs4L2bTsYHIqQjSH9-17" value="" style="edgeStyle=orthogonalEdgeStyle;rounded=0;orthogonalLoop=1;jettySize=auto;html=1;" edge="1" parent="1" target="YkcUs4L2bTsYHIqQjSH9-5">
          <mxGeometry relative="1" as="geometry">
            <mxPoint x="420" y="80" as="sourcePoint" />
            <Array as="points">
              <mxPoint x="420" y="100" />
              <mxPoint x="420" y="100" />
            </Array>
          </mxGeometry>
        </mxCell>
        <mxCell id="YkcUs4L2bTsYHIqQjSH9-2" value="Agent" style="shape=umlActor;verticalLabelPosition=bottom;verticalAlign=top;html=1;outlineConnect=0;" vertex="1" parent="1">
          <mxGeometry x="405" y="-10" width="30" height="60" as="geometry" />
        </mxCell>
        <mxCell id="YkcUs4L2bTsYHIqQjSH9-5" value="/operator/signin" style="rounded=0;whiteSpace=wrap;html=1;" vertex="1" parent="1">
          <mxGeometry x="357.5" y="120" width="125" height="60" as="geometry" />
        </mxCell>
        <mxCell id="YkcUs4L2bTsYHIqQjSH9-6" value="" style="endArrow=classic;html=1;rounded=0;exitX=0.5;exitY=1;exitDx=0;exitDy=0;exitPerimeter=0;entryX=0.5;entryY=0;entryDx=0;entryDy=0;" edge="1" parent="1" source="YkcUs4L2bTsYHIqQjSH9-5" target="YkcUs4L2bTsYHIqQjSH9-1">
          <mxGeometry width="50" height="50" relative="1" as="geometry">
            <mxPoint x="190" y="320" as="sourcePoint" />
            <mxPoint x="240" y="270" as="targetPoint" />
          </mxGeometry>
        </mxCell>
        <mxCell id="YkcUs4L2bTsYHIqQjSH9-7" value="" style="endArrow=classic;html=1;rounded=0;exitX=0;exitY=0.5;exitDx=0;exitDy=0;entryX=0.5;entryY=0;entryDx=0;entryDy=0;" edge="1" parent="1" source="YkcUs4L2bTsYHIqQjSH9-1" target="YkcUs4L2bTsYHIqQjSH9-14">
          <mxGeometry width="50" height="50" relative="1" as="geometry">
            <mxPoint x="148.02" y="258.96" as="sourcePoint" />
            <mxPoint x="100.00000000000003" y="337.99999999999994" as="targetPoint" />
            <Array as="points">
              <mxPoint x="238" y="280" />
            </Array>
          </mxGeometry>
        </mxCell>
        <mxCell id="YkcUs4L2bTsYHIqQjSH9-8" value="" style="endArrow=classic;html=1;rounded=0;exitX=1;exitY=0.5;exitDx=0;exitDy=0;entryX=0.5;entryY=0;entryDx=0;entryDy=0;" edge="1" parent="1" source="YkcUs4L2bTsYHIqQjSH9-1" target="YkcUs4L2bTsYHIqQjSH9-12">
          <mxGeometry width="50" height="50" relative="1" as="geometry">
            <mxPoint x="190" y="320" as="sourcePoint" />
            <mxPoint x="600" y="360" as="targetPoint" />
            <Array as="points">
              <mxPoint x="600" y="280" />
            </Array>
          </mxGeometry>
        </mxCell>
        <mxCell id="YkcUs4L2bTsYHIqQjSH9-9" value="" style="endArrow=classic;html=1;rounded=0;entryX=0.5;entryY=0;entryDx=0;entryDy=0;" edge="1" parent="1" target="YkcUs4L2bTsYHIqQjSH9-5">
          <mxGeometry width="50" height="50" relative="1" as="geometry">
            <mxPoint x="420" y="100" as="sourcePoint" />
            <mxPoint x="240" y="270" as="targetPoint" />
          </mxGeometry>
        </mxCell>
        <mxCell id="YkcUs4L2bTsYHIqQjSH9-10" value="Token not exists" style="text;html=1;align=center;verticalAlign=middle;resizable=0;points=[];autosize=1;strokeColor=none;fillColor=none;" vertex="1" parent="1">
          <mxGeometry x="170" y="248" width="110" height="30" as="geometry" />
        </mxCell>
        <mxCell id="YkcUs4L2bTsYHIqQjSH9-11" value="&lt;div&gt;Token exists&lt;/div&gt;" style="text;html=1;align=center;verticalAlign=middle;resizable=0;points=[];autosize=1;strokeColor=none;fillColor=none;" vertex="1" parent="1">
          <mxGeometry x="545" y="248" width="90" height="30" as="geometry" />
        </mxCell>
        <mxCell id="YkcUs4L2bTsYHIqQjSH9-12" value="/agent/chat" style="rounded=0;whiteSpace=wrap;html=1;" vertex="1" parent="1">
          <mxGeometry x="520" y="600" width="160" height="80" as="geometry" />
        </mxCell>
        <mxCell id="YkcUs4L2bTsYHIqQjSH9-13" value="redirect" style="text;html=1;align=center;verticalAlign=middle;resizable=0;points=[];autosize=1;strokeColor=none;fillColor=none;" vertex="1" parent="1">
          <mxGeometry x="600" y="308" width="60" height="30" as="geometry" />
        </mxCell>
        <mxCell id="YkcUs4L2bTsYHIqQjSH9-14" value="check header email" style="rhombus;whiteSpace=wrap;html=1;" vertex="1" parent="1">
          <mxGeometry x="117.5" y="360" width="240" height="80" as="geometry" />
        </mxCell>
        <mxCell id="YkcUs4L2bTsYHIqQjSH9-15" value="" style="endArrow=classic;html=1;rounded=0;exitX=0;exitY=0.5;exitDx=0;exitDy=0;entryX=0.5;entryY=0;entryDx=0;entryDy=0;" edge="1" parent="1" source="YkcUs4L2bTsYHIqQjSH9-14" target="YkcUs4L2bTsYHIqQjSH9-19">
          <mxGeometry width="50" height="50" relative="1" as="geometry">
            <mxPoint x="40" y="438" as="sourcePoint" />
            <mxPoint x="70" y="450" as="targetPoint" />
            <Array as="points">
              <mxPoint x="80" y="400" />
            </Array>
          </mxGeometry>
        </mxCell>
        <mxCell id="YkcUs4L2bTsYHIqQjSH9-16" value="Header not exists" style="text;html=1;align=center;verticalAlign=middle;resizable=0;points=[];autosize=1;strokeColor=none;fillColor=none;" vertex="1" parent="1">
          <mxGeometry x="10" y="368" width="120" height="30" as="geometry" />
        </mxCell>
        <mxCell id="YkcUs4L2bTsYHIqQjSH9-19" value="&lt;div&gt;base_domain:base_port&lt;/div&gt;&lt;div&gt;(balancer)&lt;/div&gt;" style="rounded=0;whiteSpace=wrap;html=1;" vertex="1" parent="1">
          <mxGeometry y="490" width="160" height="60" as="geometry" />
        </mxCell>
        <mxCell id="YkcUs4L2bTsYHIqQjSH9-20" value="redirect" style="text;html=1;align=center;verticalAlign=middle;resizable=0;points=[];autosize=1;strokeColor=none;fillColor=none;" vertex="1" parent="1">
          <mxGeometry x="10" y="418" width="60" height="30" as="geometry" />
        </mxCell>
        <mxCell id="YkcUs4L2bTsYHIqQjSH9-22" value="Add header email:agent_email" style="rounded=0;whiteSpace=wrap;html=1;" vertex="1" parent="1">
          <mxGeometry y="610" width="160" height="60" as="geometry" />
        </mxCell>
        <mxCell id="YkcUs4L2bTsYHIqQjSH9-23" value="" style="endArrow=classic;html=1;rounded=0;exitX=0.5;exitY=1;exitDx=0;exitDy=0;entryX=0.5;entryY=0;entryDx=0;entryDy=0;" edge="1" parent="1" source="YkcUs4L2bTsYHIqQjSH9-19" target="YkcUs4L2bTsYHIqQjSH9-22">
          <mxGeometry width="50" height="50" relative="1" as="geometry">
            <mxPoint x="160" y="470" as="sourcePoint" />
            <mxPoint x="210" y="420" as="targetPoint" />
          </mxGeometry>
        </mxCell>
        <mxCell id="YkcUs4L2bTsYHIqQjSH9-25" value="" style="endArrow=classic;html=1;rounded=0;entryX=0;entryY=0.5;entryDx=0;entryDy=0;" edge="1" parent="1" target="YkcUs4L2bTsYHIqQjSH9-5">
          <mxGeometry width="50" height="50" relative="1" as="geometry">
            <mxPoint y="640" as="sourcePoint" />
            <mxPoint x="-40" y="160" as="targetPoint" />
            <Array as="points">
              <mxPoint x="-40" y="640" />
              <mxPoint x="-40" y="150" />
            </Array>
          </mxGeometry>
        </mxCell>
        <mxCell id="YkcUs4L2bTsYHIqQjSH9-26" value="try to find agent with email" style="rhombus;whiteSpace=wrap;html=1;" vertex="1" parent="1">
          <mxGeometry x="280" y="480" width="240" height="80" as="geometry" />
        </mxCell>
        <mxCell id="YkcUs4L2bTsYHIqQjSH9-27" value="" style="endArrow=classic;html=1;rounded=0;exitX=1;exitY=0.5;exitDx=0;exitDy=0;entryX=0.5;entryY=0;entryDx=0;entryDy=0;" edge="1" parent="1" source="YkcUs4L2bTsYHIqQjSH9-14" target="YkcUs4L2bTsYHIqQjSH9-26">
          <mxGeometry width="50" height="50" relative="1" as="geometry">
            <mxPoint x="160" y="470" as="sourcePoint" />
            <mxPoint x="440" y="400" as="targetPoint" />
            <Array as="points">
              <mxPoint x="400" y="400" />
            </Array>
          </mxGeometry>
        </mxCell>
        <mxCell id="YkcUs4L2bTsYHIqQjSH9-28" value="" style="endArrow=classic;html=1;rounded=0;exitX=1;exitY=0.5;exitDx=0;exitDy=0;entryX=0.5;entryY=0;entryDx=0;entryDy=0;" edge="1" parent="1" source="YkcUs4L2bTsYHIqQjSH9-26" target="YkcUs4L2bTsYHIqQjSH9-12">
          <mxGeometry width="50" height="50" relative="1" as="geometry">
            <mxPoint x="160" y="470" as="sourcePoint" />
            <mxPoint x="610" y="520" as="targetPoint" />
            <Array as="points">
              <mxPoint x="600" y="520" />
            </Array>
          </mxGeometry>
        </mxCell>
        <mxCell id="YkcUs4L2bTsYHIqQjSH9-29" value="agent exists" style="text;html=1;align=center;verticalAlign=middle;resizable=0;points=[];autosize=1;strokeColor=none;fillColor=none;" vertex="1" parent="1">
          <mxGeometry x="475" y="468" width="90" height="30" as="geometry" />
        </mxCell>
        <mxCell id="YkcUs4L2bTsYHIqQjSH9-30" value="" style="endArrow=classic;html=1;rounded=0;exitX=0;exitY=0.5;exitDx=0;exitDy=0;entryX=1;entryY=0.5;entryDx=0;entryDy=0;" edge="1" parent="1" source="YkcUs4L2bTsYHIqQjSH9-26" target="YkcUs4L2bTsYHIqQjSH9-19">
          <mxGeometry width="50" height="50" relative="1" as="geometry">
            <mxPoint x="160" y="470" as="sourcePoint" />
            <mxPoint x="210" y="420" as="targetPoint" />
          </mxGeometry>
        </mxCell>
        <mxCell id="YkcUs4L2bTsYHIqQjSH9-31" value="agent not exists" style="text;html=1;align=center;verticalAlign=middle;resizable=0;points=[];autosize=1;strokeColor=none;fillColor=none;" vertex="1" parent="1">
          <mxGeometry x="235" y="468" width="110" height="30" as="geometry" />
        </mxCell>
        <mxCell id="YkcUs4L2bTsYHIqQjSH9-32" value="redirect" style="text;html=1;align=center;verticalAlign=middle;resizable=0;points=[];autosize=1;strokeColor=none;fillColor=none;" vertex="1" parent="1">
          <mxGeometry x="190" y="498" width="60" height="30" as="geometry" />
        </mxCell>
      </root>
    </mxGraphModel>
  </diagram>
</mxfile>
